<?xml version="1.0" standalone="no"?>
<!DOCTYPE svg PUBLIC "-//W3C//DTD SVG 1.1//EN" "http://www.w3.org/Graphics/SVG/1.1/DTD/svg11.dtd" >
<svg xmlns="http://www.w3.org/2000/svg">
<metadata>Generated by IcoMoon</metadata>
<defs>
<font id="amika-swell-icons" horiz-adv-x="1024">
<font-face units-per-em="1024" ascent="960" descent="-64" />
<missing-glyph horiz-adv-x="1024" />
<glyph unicode="&#x20;" horiz-adv-x="512" d="" />
<glyph unicode="&#xe900;" glyph-name="facebook1" d="M588.8 624v88c0 12.8 0 24 1.6 30.4 1.6 8 4.8 14.4 8 20.8 4.8 6.4 11.2 11.2 20.8 14.4s22.4 4.8 38.4 4.8h88v177.6h-139.2c-81.6 0-139.2-19.2-174.4-57.6s-52.8-96-52.8-171.2v-107.2h-104v-176h104v-512h209.6v512h139.2l19.2 176h-158.4z" />
<glyph unicode="&#xe901;" glyph-name="link" d="M336 364.8l267.2 243.2c16 14.4 40 14.4 56 0l28.8-25.6c16-14.4 16-36.8 0-51.2l-267.2-243.2c-16-14.4-40-14.4-56 0l-28.8 25.6c-16 14.4-16 38.4 0 51.2zM579.2 296c-16 14.4-40 14.4-56 0l-219.2-200c-9.6-8-24-6.4-28.8 0l-147.2 134.4c-9.6 9.6-6.4 22.4 0 25.6l217.6 198.4c16 14.4 16 36.8 0 51.2l-28.8 25.6c-16 14.4-40 14.4-56 0l-216-192c-64-57.6-56-137.6-4.8-185.6l147.2-134.4c57.6-51.2 145.6-49.6 204.8 3.2l214.4 195.2c16 14.4 16 36.8 0 51.2l-27.2 27.2zM982.4 740.8c-33.6 32-115.2 105.6-148.8 136-56 51.2-145.6 48-198.4-1.6l-217.6-196.8c-16-14.4-16-36.8 0-51.2l28.8-25.6c16-14.4 40-14.4 56 0l217.6 198.4c9.6 8 24 6.4 28.8 0l147.2-134.4c9.6-8 6.4-20.8 0-25.6l-216-201.6c-16-14.4-16-36.8 0-51.2l28.8-25.6c16-14.4 40-14.4 56 0l217.6 198.4c52.8 48 57.6 129.6 0 180.8z" />
<glyph unicode="&#xe902;" glyph-name="message" d="M0 960v-819.2h153.6v-204.8l384 204.8h486.4v819.2h-1024zM921.6 243.2h-409.6l-256-137.6v137.6h-153.6v614.4h819.2c0 0 0-614.4 0-614.4zM819.2 704h-614.4v-102.4h614.4v102.4zM819.2 499.2h-614.4v-102.4h614.4v102.4z" />
<glyph unicode="&#xe903;" glyph-name="messenger" d="M1020.8 545.6c-1.6 32-6.4 62.4-16 92.8-8 25.6-19.2 51.2-32 73.6-11.2 20.8-24 40-40 57.6-12.8 16-27.2 32-43.2 46.4-59.2 56-134.4 96-212.8 118.4-11.2 3.2-24 6.4-35.2 9.6-28.8 6.4-57.6 11.2-88 12.8-11.2 3.2-25.6 3.2-40 3.2-1.6 0-4.8 0-6.4 0-12.8 0-25.6 0-38.4-1.6-28.8-1.6-56-6.4-84.8-11.2-88-19.2-171.2-57.6-240-116.8-16-12.8-30.4-27.2-43.2-43.2-14.4-17.6-28.8-35.2-41.6-54.4-12.8-20.8-25.6-43.2-33.6-67.2-11.2-27.2-17.6-56-22.4-86.4-4.8-35.2-3.2-70.4 1.6-105.6 6.4-41.6 20.8-81.6 41.6-120 17.6-27.2 38.4-56 62.4-81.6 11.2-12.8 24-24 36.8-35.2 1.6-1.6 4.8-3.2 6.4-6.4 1.6-1.6 3.2-3.2 6.4-4.8l-70.4-268.8c0 0 0-1.6 0-3.2s0-3.2 0-4.8 1.6-3.2 1.6-4.8c3.2-3.2 8-8 14.4-8 3.2 0 4.8 0 6.4 1.6 0 0 1.6 0 1.6 1.6l1.6 1.6 251.2 187.2h1.6c19.2-4.8 40-8 59.2-11.2 35.2-4.8 70.4-6.4 104-6.4 35.2 1.6 70.4 4.8 104 12.8 68.8 14.4 134.4 40 192 78.4 46.4 30.4 88 68.8 121.6 113.6 25.6 36.8 46.4 76.8 59.2 120 11.2 36.8 16 73.6 14.4 110.4zM833.6 688c0-1.6 0-3.2-1.6-4.8 0-1.6-1.6-4.8-1.6-8-54.4-49.6-102.4-94.4-144-134.4-17.6-16-35.2-33.6-52.8-49.6s-33.6-30.4-46.4-43.2c-12.8-12.8-24-22.4-33.6-30.4-8-8-12.8-11.2-12.8-11.2s-1.6-1.6-4.8-3.2c-3.2-3.2-6.4-4.8-9.6-8s-8-8-14.4-12.8l-57.6 160-265.6-176c1.6 3.2 1.6 6.4 1.6 9.6 0 1.6 1.6 4.8 1.6 6.4s0 3.2 0 3.2 3.2 4.8 12.8 12.8c8 8 19.2 19.2 33.6 32s30.4 28.8 48 46.4 36.8 35.2 54.4 52.8c43.2 41.6 92.8 89.6 148.8 144l64-168c52.8 35.2 99.2 65.6 139.2 92.8 17.6 11.2 35.2 22.4 51.2 33.6s32 20.8 44.8 30.4 24 16 32 20.8 12.8 8 12.8 8c0-1.6 0-1.6 0-3.2z" />
<glyph unicode="&#xe904;" d="M803.93 511.775l-62.877 31.439-1.796 7.186c-5.389 26.947-17.067 61.979-27.846 72.758l-1.796 1.796c-26.947 26.947-44.912 37.726-84.435 41.319-2.695 0-5.389 0.898-10.779 0.898-35.93 0-59.284-16.168-82.639-51.2-7.186-10.779-13.474-24.253-22.456-52.996v0c0 0-2.695-7.186-3.593-8.982-9.881-27.846-17.067-43.116-26.947-56.589-24.253-33.235-63.775-46.709-108.688-48.505-2.695 0-2.695 0-5.389 0-32.337 0-71.86 10.779-105.993 28.744-11.677 7.186-24.253 17.067-36.828 28.744-1.796-23.354-1.796-43.116-0.898-59.284 3.593-52.098 32.337-110.484 70.961-147.312 46.709-44.912 112.281-66.47 201.207-66.47 70.063 0 124.856 26.947 167.972 71.86 17.067 17.965 27.846 33.235 44.014 59.284 11.677 18.863 19.761 42.218 25.151 66.47 2.695 14.372 4.491 29.642 4.491 33.235v8.084l69.165 39.523z" />
<glyph unicode="&#xe905;" d="M495.832 223.439c-90.723 0-158.091 22.456-205.698 68.267-40.421 38.625-69.165 97.909-73.656 151.804-0.898 15.27-0.898 35.032 0.898 60.182l0.898 14.372 10.779-9.881c12.575-12.575 24.253-21.558 35.032-27.846 32.337-17.965 70.961-27.846 102.4-27.846h5.389c47.607 1.796 82.639 17.067 103.298 45.811 8.982 12.575 15.27 26.049 26.049 55.691l2.695 8.084c0 0 0 0.898 0 0.898v0c10.779 30.54 16.168 44.014 23.354 54.793 26.049 38.625 52.098 53.895 88.028 53.895 5.389 0 8.084 0 11.677-0.898 43.116-3.593 61.979-16.168 88.926-43.116h0.898c13.474-13.474 25.151-52.098 29.642-76.351l0.898-3.593 70.063-35.032-73.656-46.709v-4.491c0-4.491-1.796-19.761-4.491-35.032-5.389-26.947-14.372-49.404-26.049-68.267-15.27-25.151-26.947-41.319-44.912-60.182-47.607-50.302-104.196-74.554-172.463-74.554zM229.951 489.319c-0.898-17.965-0.898-32.337 0-44.912 3.593-50.302 30.54-105.993 69.165-142.821 45.811-44.014 109.586-64.674 196.716-64.674 64.674 0 118.568 23.354 162.582 70.063 17.067 18.863 28.744 34.133 43.116 58.386 10.779 17.965 18.863 39.523 24.253 64.674 2.695 14.372 4.491 28.744 4.491 32.337v11.677l60.182 36.828-55.691 27.846-1.796 9.881c-5.389 28.744-17.067 60.182-26.049 69.165l-1.796 1.796c-26.049 26.049-42.218 35.93-80.842 39.523-2.695 0-4.491 0-9.881 0-30.54 0-52.098-13.474-75.453-48.505-6.288-8.982-11.677-20.66-19.761-44.912v0l-2.695-6.288c0 0 0 0 0 0l-5.389 1.796 4.491-2.695-2.695-8.084c-9.881-26.049-17.067-44.014-27.846-58.386-23.354-32.337-61.979-49.404-114.077-51.2h-5.389c-33.235 0-74.554 10.779-108.688 29.642-8.982 4.491-17.965 10.779-26.947 18.863zM516.491 559.382v0 0z" />
<glyph unicode="&#xe906;" d="M553.319 437.221l-246.119-68.267c22.456-28.744 57.488-49.404 111.382-49.404 4.491 0 6.288 0 8.084 0 2.695 0 5.389 0 8.084 0 41.319 3.593 71.86 17.067 91.621 41.319v0c18.863 22.456 26.049 50.302 26.947 76.351z" />
<glyph unicode="&#xe907;" d="M418.582 313.263c-50.302 0-90.723 17.965-116.772 52.098l-5.389 8.084 264.982 72.758v-8.982c-0.898-30.54-10.779-58.386-28.744-79.046-20.66-25.151-52.996-40.421-96.112-44.014-2.695 0-5.389 0-8.084-0.898-3.593 0-5.389 0-9.881 0zM318.877 365.361c23.354-26.049 56.589-38.625 99.705-38.625 4.491 0 6.288 0 8.084 0 2.695 0 5.389 0 7.186 0 39.523 3.593 68.267 16.168 87.13 38.625 13.474 16.168 22.456 38.625 24.253 61.979l-226.358-61.979z" />
<glyph unicode="&#xe908;" d="M642.246 537.825c-17.067 0-31.439 13.474-31.439 31.439s13.474 31.439 31.439 31.439 31.439-13.474 31.439-31.439-13.474-31.439-31.439-31.439z" />
<glyph unicode="&#xe909;" d="M383.551 665.375h264.982c49.404 0 89.825-40.421 89.825-89.825v-264.982c0-49.404-40.421-89.825-89.825-89.825h-264.982c-49.404 0-89.825 40.421-89.825 89.825v264.982c0 50.302 40.421 89.825 89.825 89.825z" />
<glyph unicode="&#xe90a;" d="M648.533 214.456h-264.982c-52.996 0-97.011 43.116-97.011 97.011v264.982c0 52.996 43.116 97.011 97.011 97.011h264.982c52.996 0 97.011-43.116 97.011-97.011v-264.982c0-53.895-43.116-97.011-97.011-97.011zM383.551 659.088c-45.811 0-83.537-36.828-83.537-83.537v-264.982c0-45.811 36.828-83.537 83.537-83.537h264.982c45.811 0 83.537 36.828 83.537 83.537v264.982c0 45.811-36.828 83.537-83.537 83.537h-264.982z" />
<glyph unicode="&#xe90b;" d="M287.439 448h449.123v-17.965h-449.123v17.965z" />
<glyph unicode="&#xe90c;" d="M293.726 427.34h444.632v155.396c0 45.811-36.828 83.537-83.537 83.537h-278.456c-45.811 0-83.537-36.828-83.537-83.537v-155.396z" />
<glyph unicode="&#xe90d;" d="M745.544 421.053h-458.105v161.684c0 49.404 40.421 89.825 89.825 89.825h278.456c49.404 0 89.825-40.421 89.825-89.825v-161.684zM300.912 434.526h431.158v148.211c0 42.218-34.133 76.351-76.351 76.351h-278.456c-42.218 0-76.351-34.133-76.351-76.351v-148.211z" />
<glyph unicode="&#xe90e;" d="M586.554 443.509c0-38.695-31.368-70.063-70.063-70.063s-70.063 31.368-70.063 70.063c0 38.695 31.368 70.063 70.063 70.063s70.063-31.368 70.063-70.063z" />
<glyph unicode="&#xe90f;" d="M516.491 367.158c-42.218 0-76.351 34.133-76.351 76.351s34.133 76.351 76.351 76.351c42.218 0 76.351-34.133 76.351-76.351s-34.133-76.351-76.351-76.351zM516.491 506.386c-35.032 0-62.877-27.846-62.877-62.877s27.846-62.877 62.877-62.877c35.032 0 62.877 27.846 62.877 62.877s-27.846 62.877-62.877 62.877z" />
<glyph unicode="&#xe910;" d="M413.193 573.754c0-14.883-12.065-26.947-26.947-26.947s-26.947 12.065-26.947 26.947c0 14.883 12.065 26.947 26.947 26.947s26.947-12.065 26.947-26.947z" />
<glyph unicode="&#xe911;" d="M653.025 172.239c-16.168 0-31.439 6.288-43.116 17.965l-35.032 35.032c-37.726-8.982-79.046-9.881-116.772-2.695l-31.439-32.337c-11.677-11.677-26.947-17.965-43.116-17.965s-31.439 6.288-43.116 17.965c-23.354 24.253-23.354 62.877 0 87.13l0.898 0.898c-48.505 42.218-75.453 102.4-75.453 167.074 0 32.337 6.288 63.775 19.761 92.519-38.625 8.084-54.793 36.828-57.488 52.098-1.796 8.084 3.593 16.168 11.677 17.965s16.168-3.593 17.965-11.677c0-0.898 6.288-26.947 44.014-29.642 43.116 66.47 121.263 105.993 209.291 105.993 13.474 0 26.947-0.898 40.421-2.695l113.179 44.014c5.389 1.796 11.677 0.898 16.168-2.695s6.288-9.881 4.491-15.27l-20.66-70.961c32.337-24.253 58.386-55.691 73.656-92.519h16.168c28.744 0 51.2-23.354 51.2-52.098v-68.267c0-28.744-23.354-52.098-51.2-52.098h-16.168c-11.677-26.947-28.744-52.098-49.404-72.758l8.982-8.982c23.354-24.253 23.354-62.877 0-87.13-12.575-12.575-28.744-18.863-44.912-18.863zM579.368 238.709l39.523-40.421c8.982-8.982 21.558-14.372 34.133-14.372s25.151 5.389 34.133 14.372c18.863 18.863 18.863 50.302 0 70.063l-17.965 17.965 4.491 4.491c23.354 21.558 41.319 47.607 52.996 76.351l1.796 3.593h25.151c21.558 0 39.523 17.965 39.523 40.421v68.267c0 22.456-17.965 40.421-39.523 40.421h-24.253l-1.796 3.593c-15.27 37.726-40.421 70.063-74.554 93.418l-3.593 2.695 22.456 79.046c0 0.898 0 2.695-0.898 3.593s-1.796 0.898-2.695 0.898l-116.772-44.912h-1.796c-13.474 1.796-26.947 2.695-40.421 2.695-85.333 0-159.888-38.625-200.309-103.298l-1.796-2.695h-3.593c-50.302 0.898-58.386 37.726-58.386 39.523s-1.796 2.695-3.593 2.695c-1.796 0-2.695-1.796-2.695-3.593 2.695-13.474 17.067-39.523 55.691-44.014l8.982-0.898-3.593-8.084c-14.372-28.744-21.558-61.081-21.558-94.316 0-62.877 27.846-121.263 76.351-161.684l5.389-4.491-9.881-10.779c-18.863-18.863-18.863-50.302 0-70.063 8.982-8.982 21.558-14.372 34.133-14.372 13.474 0 25.151 5.389 34.133 14.372l36.828 36.828 3.593-0.898c38.625-8.084 80.842-6.288 118.568 2.695l1.796 0.898z" />
<glyph unicode="&#xe912;" d="M670.989 517.165c0-11.41-9.25-20.66-20.66-20.66s-20.66 9.25-20.66 20.66c0 11.41 9.25 20.66 20.66 20.66s20.66-9.25 20.66-20.66z" />
<glyph unicode="&#xe913;" d="M444.632 609.684h71.86c7.186 0 13.474-6.288 13.474-13.474v0c0-7.186-6.288-13.474-13.474-13.474h-71.86c-7.186 0-13.474 6.288-13.474 13.474v0c0 7.186 6.288 13.474 13.474 13.474z" />
<glyph unicode="&#xe914;" d="M388.042 744.421c2.695-9.881 8.084-16.168 11.677-20.66 2.695-3.593 4.491-6.288 4.491-8.982 0-8.084-6.288-15.27-13.474-15.27s-13.474 7.186-13.474 15.27c0 6.288 6.288 22.456 10.779 29.642z" />
<glyph unicode="&#xe915;" d="M504.814 744.421c2.695-9.881 8.084-16.168 11.677-20.66 2.695-3.593 4.491-6.288 4.491-8.982 0-8.084-6.288-15.27-13.474-15.27s-13.474 7.186-13.474 15.27c0 6.288 6.288 22.456 10.779 29.642z" />
<glyph unicode="&#xe916;" d="M375.467 683.34v-103.298h40.421v103.298h-40.421z" />
<glyph unicode="&#xe917;" d="M422.175 573.754h-53.895v116.772h53.895v-116.772zM381.754 587.228h26.947v89.825h-26.947v-89.825z" />
<glyph unicode="&#xe918;" d="M492.239 683.34v-103.298h40.421v103.298h-40.421z" />
<glyph unicode="&#xe919;" d="M538.947 573.754h-53.895v116.772h53.895v-116.772zM498.526 587.228h26.947v89.825h-26.947v-89.825z" />
<glyph unicode="&#xe91a;" d="M612.604 744.421c2.695-9.881 8.084-16.168 11.677-20.66 2.695-3.593 4.491-6.288 4.491-8.982 0-8.084-6.288-15.27-13.474-15.27s-13.474 7.186-13.474 15.27c0 6.288 6.288 22.456 10.779 29.642z" />
<glyph unicode="&#xe91b;" d="M600.028 683.34v-103.298h40.421v103.298h-40.421z" />
<glyph unicode="&#xe91c;" d="M646.737 573.754h-53.895v116.772h53.895v-116.772zM606.316 587.228h26.947v89.825h-26.947v-89.825z" />
<glyph unicode="&#xe91d;" d="M251.509 584.533c-16.168 0-28.744-13.474-28.744-28.744v-143.719c0-16.168 13.474-28.744 28.744-28.744h512c16.168 0 28.744 13.474 28.744 28.744v143.719c0 16.168-13.474 28.744-28.744 28.744h-512z" />
<glyph unicode="&#xe91e;" d="M763.509 376.14h-512c-19.761 0-35.93 16.168-35.93 35.93v143.719c0 19.761 16.168 35.93 35.93 35.93h512c19.761 0 35.93-16.168 35.93-35.93v-143.719c0-19.761-16.168-35.93-35.93-35.93zM251.509 578.246c-12.575 0-22.456-9.881-22.456-22.456v-143.719c0-12.575 9.881-22.456 22.456-22.456h512c12.575 0 22.456 9.881 22.456 22.456v143.719c0 12.575-9.881 22.456-22.456 22.456h-512z" />
<glyph unicode="&#xe91f;" d="M220.968 483.93c21.558-17.067 52.996-16.168 71.86 4.491 34.133 35.93 89.825 35.93 124.856 0 21.558-22.456 56.589-22.456 78.147 0 34.133 35.93 89.825 35.93 124.856 0 21.558-22.456 56.589-22.456 78.147 0 17.067 17.067 38.625 26.947 61.979 26.947 11.677 0 22.456-2.695 33.235-7.186v47.607c0 17.067-13.474 30.54-30.54 30.54h-512c-17.067 0-30.54-13.474-30.54-30.54v-71.86z" />
<glyph unicode="&#xe920;" d="M659.312 465.965c0 0 0 0 0 0-16.168 0-31.439 6.288-43.116 18.863-15.27 16.168-35.93 25.151-58.386 25.151s-43.116-8.982-58.386-25.151c-11.677-11.677-26.947-18.863-43.116-18.863 0 0 0 0 0 0-16.168 0-31.439 6.288-43.116 18.863-15.27 16.168-35.93 25.151-58.386 25.151s-43.116-8.982-58.386-25.151c-21.558-22.456-55.691-24.253-79.944-5.389l-0.898 1.796v74.554c0 19.761 16.168 35.93 35.93 35.93h512c19.761 0 35.93-16.168 35.93-35.93v-56.589l-8.084 3.593c-31.439 13.474-66.47 5.389-88.926-18.863-11.677-11.677-26.947-17.965-43.116-17.965zM557.811 520.758c25.151 0 48.505-9.881 66.47-28.744 8.982-9.881 21.558-15.27 35.032-15.27 0 0 0 0 0 0 13.474 0 25.151 5.389 35.032 15.27 17.965 18.863 41.319 28.744 66.47 28.744 8.982 0 18.863-1.796 27.846-4.491v39.523c0 13.474-10.779 25.151-25.151 25.151h-512c-13.474 0-25.151-10.779-25.151-25.151v-69.165c19.761-14.372 45.811-11.677 62.877 5.389 17.965 18.863 41.319 28.744 66.47 28.744s48.505-9.881 66.47-28.744c8.982-9.881 21.558-15.27 35.032-15.27s25.151 5.389 35.032 15.27c17.067 18.863 40.421 28.744 65.572 28.744z" />
<glyph unicode="&#xe921;" d="M152.702 392.309c-16.168 0-28.744-13.474-28.744-28.744v-173.361c0-16.168 12.575-29.642 28.744-29.642h710.512c16.168 0 28.744 13.474 28.744 28.744v174.26c0 16.168-13.474 28.744-28.744 28.744h-710.512z" />
<glyph unicode="&#xe922;" d="M863.214 153.375h-710.512c-19.761 0-35.93 16.168-35.93 35.93v174.26c0 19.761 16.168 35.93 35.93 35.93h710.512c19.761 0 35.93-16.168 35.93-35.93v-173.361c0-20.66-16.168-36.828-35.93-36.828zM152.702 386.021c-12.575 0-22.456-9.881-22.456-22.456v-173.361c0-12.575 9.881-22.456 22.456-22.456h710.512c12.575 0 22.456 9.881 22.456 22.456v173.361c0 12.575-9.881 22.456-22.456 22.456h-710.512z" />
<glyph unicode="&#xe923;" d="M123.958 303.382c29.642-17.067 72.758-15.27 98.807 5.389 45.811 35.032 118.568 35.032 164.379 0 29.642-22.456 77.249-22.456 106.891 0 45.811 35.032 118.568 35.032 164.379 0 29.642-22.456 77.249-22.456 106.891 0 22.456 17.067 51.2 26.049 81.74 26.049 15.27 0 30.54-2.695 44.912-7.186v35.93c0 16.168-13.474 28.744-28.744 28.744h-710.512c-16.168 0-28.744-13.474-28.744-28.744v-60.182z" />
<glyph unicode="&#xe924;" d="M711.411 285.418c-20.66 0-41.319 6.288-57.488 17.965-43.116 32.337-113.179 32.337-156.295 0-31.439-24.253-83.537-24.253-114.975 0-43.116 32.337-113.179 32.337-156.295 0-27.846-21.558-73.656-24.253-105.993-5.389l-3.593 1.796v63.775c0 19.761 16.168 35.93 35.93 35.93h710.512c19.761 0 35.93-16.168 35.93-35.93v-45.811l-8.982 2.695c-43.116 14.372-90.723 6.288-121.263-17.067-16.168-12.575-36.828-17.965-57.488-17.965zM575.775 341.109c31.439 0 62.877-8.982 86.232-26.947 26.947-20.66 71.86-20.66 98.807 0 32.337 24.253 79.944 34.133 124.856 22.456v26.947c0 12.575-9.881 22.456-22.456 22.456h-710.512c-12.575 0-22.456-9.881-22.456-22.456v-55.691c27.846-14.372 64.674-11.677 88.028 6.288 47.607 35.93 124.856 35.93 172.463 0 26.947-20.66 71.86-20.66 98.807 0 23.354 17.965 54.793 26.947 86.232 26.947z" />
<glyph unicode="&#xe925;" d="M314.386 638.428c-45.811 0-82.639-36.828-82.639-82.639v-224.561c0-45.811 36.828-82.639 82.639-82.639h404.211c45.811 0 82.639 36.828 82.639 82.639v224.561c0 45.811-36.828 82.639-82.639 82.639h-404.211z" />
<glyph unicode="&#xe926;" d="M718.596 241.404h-404.211c-49.404 0-89.825 40.421-89.825 89.825v224.561c0 49.404 40.421 89.825 89.825 89.825h404.211c49.404 0 89.825-40.421 89.825-89.825v-224.561c0-49.404-40.421-89.825-89.825-89.825zM314.386 632.14c-42.218 0-76.351-34.133-76.351-76.351v-224.561c0-42.218 34.133-76.351 76.351-76.351h404.211c42.218 0 76.351 34.133 76.351 76.351v224.561c0 42.218-34.133 76.351-76.351 76.351h-404.211z" />
<glyph unicode="&#xe927;" d="M370.077 453.389c20.66 0 37.726 17.067 37.726 37.726s-16.168 37.726-37.726 37.726-37.726-17.067-37.726-37.726 17.067-37.726 37.726-37.726z" />
<glyph unicode="&#xe928;" d="M370.077 447.102c-24.253 0-44.912 19.761-44.912 44.014s19.761 44.014 44.912 44.014 44.912-19.761 44.912-44.014c0-24.253-19.761-44.014-44.912-44.014zM370.077 521.656c-17.067 0-31.439-13.474-31.439-30.54s13.474-30.54 31.439-30.54c17.067 0 31.439 13.474 31.439 30.54s-14.372 30.54-31.439 30.54z" />
<glyph unicode="&#xe929;" d="M287.439 363.565c0 44.912 35.93 80.842 79.944 80.842s79.944-35.93 79.944-80.842h-159.888z" />
<glyph unicode="&#xe92a;" d="M454.512 356.379h-174.26v7.186c0 48.505 38.625 88.028 87.13 88.028s87.13-39.523 87.13-88.028v-7.186zM294.625 369.853h145.516c-3.593 37.726-35.032 67.368-72.758 67.368s-69.165-29.642-72.758-67.368z" />
<glyph unicode="&#xe92b;" d="M549.687 525.833h177.853c6.288 0 11.677-5.389 11.677-11.677v0c0-6.288-5.389-11.677-11.677-11.677h-177.853c-6.288-0.898-11.677 4.491-11.677 11.677v0c0 6.288 5.389 11.677 11.677 11.677z" />
<glyph unicode="&#xe92c;" d="M549.687 456.668h177.853c6.288 0 11.677-5.389 11.677-11.677v0c0-6.288-5.389-11.677-11.677-11.677h-177.853c-6.288-0.898-11.677 4.491-11.677 11.677v0c0 6.288 5.389 11.677 11.677 11.677z" />
<glyph unicode="&#xe92d;" d="M549.687 387.503h177.853c6.288 0 11.677-5.389 11.677-11.677v0c0-6.288-5.389-11.677-11.677-11.677h-177.853c-6.288 0-11.677 5.389-11.677 11.677v0c0 6.288 5.389 11.677 11.677 11.677z" />
<glyph unicode="&#xe92e;" d="M188.632 592.618h590.147v-411.396h-590.147v411.396z" />
<glyph unicode="&#xe92f;" d="M787.761 172.239h-608.112v429.361h608.112v-429.361zM197.614 190.204h572.182v393.432h-572.182v-393.432z" />
<glyph unicode="&#xe930;" d="M486.849 507.284l279.354-326.063h-559.607z" />
<glyph unicode="&#xe931;" d="M785.965 172.239h-599.13l300.014 349.418 299.116-349.418zM226.358 190.204h520.982l-260.491 303.607-260.491-303.607z" />
<glyph unicode="&#xe932;" d="M485.951 382.428l-279.354 211.986h559.607z" />
<glyph unicode="&#xe933;" d="M485.951 371.649l-306.302 231.747h613.502l-307.2-231.747zM233.544 585.432l252.407-191.326 254.204 191.326h-506.611z" />
<glyph unicode="&#xe934;" d="M876.688 625.853c0-55.562-45.444-100.604-101.502-100.604s-101.502 45.042-101.502 100.604c0 55.562 45.444 100.604 101.502 100.604s101.502-45.042 101.502-100.604z" />
<glyph unicode="&#xe935;" d="M775.186 516.267c-61.081 0-110.484 49.404-110.484 109.586s49.404 109.586 110.484 109.586 110.484-49.404 110.484-109.586c0-60.182-49.404-109.586-110.484-109.586zM775.186 717.474c-51.2 0-92.519-41.319-92.519-91.621s41.319-91.621 92.519-91.621c51.2 0 92.519 41.319 92.519 91.621s-41.319 91.621-92.519 91.621z" />
<glyph unicode="&#xe936;" d="M787.761 678.849v-70.063c0-6.288-5.389-11.677-11.677-11.677v0c-7.186-0.898-12.575 4.491-12.575 10.779v70.961c0 6.288 5.389 11.677 11.677 11.677v0c7.186 0 12.575-5.389 12.575-11.677z" />
<glyph unicode="&#xe937;" d="M787.761 575.551v0c0-6.288-5.389-11.677-11.677-11.677h-0.898c-6.288 0.898-11.677 5.389-11.677 11.677v0c0 6.288 5.389 11.677 11.677 11.677h1.796c5.389 0 10.779-5.389 10.779-11.677z" />
<glyph unicode="&#xe938;" d="M817.404 448c0-168.67-136.734-305.404-305.404-305.404s-305.404 136.734-305.404 305.404c0 168.67 136.734 305.404 305.404 305.404s305.404-136.734 305.404-305.404z" />
<glyph unicode="&#xe939;" d="M512 133.614c-173.361 0-314.386 141.025-314.386 314.386s141.025 314.386 314.386 314.386 314.386-141.025 314.386-314.386-141.025-314.386-314.386-314.386zM512 744.421c-163.481 0-296.421-132.94-296.421-296.421s132.94-296.421 296.421-296.421 296.421 132.94 296.421 296.421-132.94 296.421-296.421 296.421z" />
<glyph unicode="&#xe93a;" d="M736.561 443.509c0-121.541-98.529-220.070-220.070-220.070s-220.070 98.529-220.070 220.070c0 121.541 98.529 220.070 220.070 220.070s220.070-98.529 220.070-220.070z" />
<glyph unicode="&#xe93b;" d="M516.491 214.456c-126.653 0-229.053 102.4-229.053 229.053s102.4 229.053 229.053 229.053 229.053-102.4 229.053-229.053-102.4-229.053-229.053-229.053zM516.491 654.596c-116.772 0-211.088-94.316-211.088-211.088s94.316-211.088 211.088-211.088 211.088 94.316 211.088 211.088-94.316 211.088-211.088 211.088z" />
<glyph unicode="&#xe93c;" d="M530.863 609.684v-31.439c12.575-1.796 22.456-6.288 30.54-12.575s15.27-16.168 22.456-28.744l-30.54-17.067c-8.982 17.067-21.558 25.151-36.828 25.151-8.982 0-17.067-2.695-23.354-8.084s-8.982-12.575-8.982-20.66c0-7.186 2.695-13.474 7.186-18.863 4.491-4.491 14.372-10.779 29.642-17.067 12.575-6.288 23.354-11.677 32.337-16.168 8.084-5.389 14.372-9.881 18.863-15.27 11.677-12.575 17.965-28.744 17.965-46.709s-5.389-34.133-16.168-47.607c-10.779-13.474-25.151-23.354-43.116-27.846v-33.235h-27.846v32.337c-20.66 3.593-36.828 10.779-47.607 21.558s-18.863 27.846-24.253 51.2l35.032 7.186c4.491-16.168 10.779-27.846 17.965-35.032 7.186-6.288 17.067-9.881 28.744-9.881s21.558 3.593 29.642 11.677c8.084 7.186 11.677 17.067 11.677 28.744 0 10.779-3.593 18.863-9.881 25.151-3.593 2.695-8.084 6.288-14.372 10.779-6.288 3.593-14.372 8.084-24.253 12.575-20.66 8.982-34.133 17.965-40.421 25.151-10.779 11.677-15.27 25.151-15.27 41.319 0 8.084 0.898 14.372 3.593 21.558 2.695 6.288 6.288 12.575 10.779 17.965s10.779 9.881 17.067 14.372c7.186 3.593 14.372 7.186 23.354 8.982v30.54h26.049z" />
<glyph unicode="&#xe93d;" d="M539.846 283.621h-45.811v33.235c-18.863 4.491-34.133 11.677-44.912 22.456-12.575 12.575-21.558 30.54-26.947 54.793l-1.796 8.982 52.098 10.779 2.695-8.084c4.491-14.372 9.881-25.151 15.27-30.54 5.389-4.491 12.575-7.186 22.456-7.186 8.982 0 17.067 2.695 23.354 8.982 6.288 5.389 8.982 13.474 8.982 22.456 0 8.084-2.695 14.372-7.186 18.863-2.695 2.695-7.186 5.389-12.575 8.982-6.288 3.593-14.372 8.084-23.354 12.575-22.456 9.881-36.828 18.863-44.014 27.846-11.677 13.474-17.965 28.744-17.965 47.607 0 8.982 1.796 17.067 4.491 24.253s7.186 14.372 12.575 20.66c5.389 6.288 11.677 11.677 19.761 16.168 5.389 3.593 11.677 6.288 18.863 8.084v34.133h45.811v-33.235c10.779-2.695 19.761-7.186 27.846-12.575 8.982-7.186 17.067-17.965 25.151-31.439l4.491-8.084-46.709-26.049-4.491 8.084c-8.084 14.372-17.067 20.66-28.744 20.66-7.186 0-12.575-1.796-17.067-6.288-4.491-3.593-6.288-8.084-6.288-14.372 0-5.389 1.796-8.982 4.491-12.575 2.695-2.695 9.881-8.084 26.947-15.27 13.474-6.288 24.253-11.677 33.235-17.067s16.168-10.779 20.66-17.067c13.474-14.372 20.66-32.337 20.66-52.996 0-19.761-6.288-37.726-17.965-53.895-10.779-13.474-24.253-23.354-41.319-28.744v-34.133zM512 301.586h9.881v31.439l6.288 1.796c16.168 4.491 28.744 12.575 38.625 24.253 9.881 12.575 14.372 26.049 14.372 42.218s-5.389 29.642-15.27 41.319c-3.593 4.491-9.881 8.982-17.067 13.474-8.084 5.389-18.863 10.779-30.54 16.168-16.168 7.186-26.947 13.474-32.337 18.863-6.288 6.288-9.881 15.27-9.881 25.151 0 10.779 4.491 19.761 12.575 27.846 8.084 7.186 17.965 10.779 29.642 10.779 16.168 0 29.642-7.186 39.523-22.456l15.27 8.982c-5.389 8.084-10.779 14.372-16.168 18.863-7.186 5.389-16.168 8.982-26.947 10.779l-7.186 0.898v28.744h-10.779v-29.642l-6.288-1.796c-8.084-1.796-15.27-4.491-20.66-8.084-6.288-3.593-10.779-7.186-15.27-11.677-3.593-4.491-7.186-9.881-8.982-15.27s-2.695-11.677-2.695-17.965c0-14.372 4.491-26.049 13.474-35.93 3.593-4.491 13.474-12.575 37.726-23.354 10.779-4.491 18.863-8.982 26.049-13.474s12.575-8.084 16.168-11.677c8.084-8.084 12.575-18.863 12.575-32.337 0-14.372-4.491-26.049-14.372-35.032s-21.558-13.474-35.93-13.474c-14.372 0-26.049 4.491-35.032 12.575-7.186 7.186-12.575 17.067-17.965 30.54l-17.965-3.593c4.491-17.067 11.677-29.642 19.761-37.726 9.881-9.881 24.253-16.168 43.116-18.863l7.186-0.898v-31.439z" />
<glyph unicode="&#xe93e;" d="M641.347 493.811c-30.54 0-44.014 5.389-46.709 8.084s-12.575 12.575 0.898 35.032c5.389 9.881 11.677 18.863 17.067 26.947 14.372 16.168 23.354 36.828 26.049 58.386 0 58.386-27.846 68.267-44.014 69.165-27.846 0.898-29.642-23.354-30.54-36.828 0.898-6.288-0.898-13.474-3.593-18.863-8.084-8.084-17.067-15.27-26.049-21.558-27.846-19.761-52.098-43.116-73.656-69.165-17.965-25.151-39.523-49.404-61.979-70.063h-39.523v-226.358c17.067 0.898 54.793 0 75.453-24.253 18.863-22.456 67.368-27.846 120.365-27.846 26.947 0 53.895 0.898 79.944 2.695 15.27 0.898 30.54 1.796 42.218 1.796 22.456 0.898 39.523 19.761 38.625 42.218 0 9.881-3.593 18.863-8.982 26.947 13.474 8.982 21.558 24.253 21.558 40.421 0 9.881-2.695 19.761-8.084 27.846 16.168 8.084 26.049 24.253 25.151 41.319 0 8.982-2.695 17.965-8.084 26.049 22.456 6.288 35.93 27.846 32.337 50.302s-23.354 38.625-45.811 37.726h-82.639z" />
<glyph unicode="&#xe93f;" d="M556.014 187.509c-70.063 0-109.586 9.881-127.551 30.54-17.965 21.558-53.895 21.558-68.267 20.66h-9.881v244.323h43.116c21.558 19.761 41.319 42.218 58.386 66.47 22.456 26.947 47.607 51.2 76.351 70.961 8.084 6.288 16.168 12.575 24.253 19.761 1.796 3.593 2.695 8.084 2.695 12.575v1.796c0.898 11.677 2.695 46.709 39.523 44.912 16.168-0.898 52.996-9.881 52.996-78.147v-0.898c-3.593-23.354-12.575-44.912-27.846-61.979v0c-5.389-8.084-10.779-16.168-16.168-26.049-9.881-16.168-3.593-21.558-1.796-23.354 0 0 0 0 0 0s8.982-5.389 40.421-5.389h83.537c26.947 0.898 51.2-18.863 54.793-45.811 3.593-23.354-8.084-45.811-28.744-56.589 2.695-7.186 4.491-14.372 4.491-21.558 0-17.965-8.084-34.133-22.456-44.912 3.593-8.084 5.389-16.168 5.389-24.253 0.898-16.168-6.288-31.439-17.965-42.218 3.593-7.186 6.288-16.168 6.288-25.151 0.898-26.947-20.66-50.302-47.607-51.2-12.575 0-26.947-0.898-42.218-1.796-26.947-0.898-54.793-2.695-81.74-2.695zM369.179 256.674c21.558 0 53.895-4.491 72.758-26.947 14.372-16.168 51.2-24.253 114.077-24.253 26.947 0 54.793 1.796 79.046 2.695 16.168 0.898 30.54 1.796 43.116 1.796 17.067 0.898 30.54 15.27 29.642 33.235 0 8.084-2.695 15.27-7.186 21.558l-6.288 8.084 8.084 5.389c10.779 7.186 17.965 19.761 17.067 32.337 0 8.084-2.695 16.168-7.186 23.354l-5.389 8.982 8.982 4.491c12.575 6.288 20.66 18.863 20.66 33.235 0 8.084-1.796 15.27-6.288 21.558l-7.186 10.779 11.677 3.593c17.965 4.491 28.744 22.456 26.049 40.421s-18.863 31.439-36.828 30.54h-83.537c-26.947 0-46.709 3.593-52.996 10.779-10.779 11.677-11.677 26.947-0.898 45.811 5.389 9.881 11.677 17.965 17.067 26.049l0.898 1.796c12.575 15.27 20.66 33.235 24.253 52.996 0 37.726-12.575 58.386-35.93 59.284-14.372 0.898-19.761-6.288-20.66-27.846 0-8.084-0.898-16.168-5.389-23.354l-0.898-0.898v-3.593c-8.084-8.084-17.965-16.168-26.947-22.456-26.947-18.863-51.2-42.218-72.758-67.368-17.965-25.151-39.523-49.404-62.877-70.961l-2.695-2.695h-32.337l0.898-208.393c-0.898 0-0.898 0 0 0z" />
<glyph unicode="&#xe940;" d="M574.877 666.274c-3.593-7.186-3.593-16.168-4.491-22.456 0.898-6.288-0.898-13.474-3.593-18.863-5.389-4.491 34.133-5.389 34.133 19.761 0 8.084 0.898 15.27 1.796 21.558 0.898 8.084-24.253 8.084-27.846 0z" />
<glyph unicode="&#xe941;" d="M369.179 227.93h-126.653v263.186h126.653z" />
<glyph unicode="&#xe942;" d="M376.365 221.642h-141.025v275.761h140.126l0.898-275.761zM249.712 235.116h113.179v249.712h-113.179v-249.712z" />
<glyph unicode="&#xe943;" d="M289.235 602.498c-8.982 0-17.067-5.389-19.761-14.372l-82.639-269.474c-0.898-1.796-0.898-3.593-0.898-6.288 0-10.779 8.982-19.761 19.761-19.761h605.418c1.796 0 4.491 0 6.288 0.898 10.779 3.593 16.168 14.372 13.474 25.151l-85.333 269.474c-2.695 8.084-10.779 14.372-18.863 14.372h-437.446z" />
<glyph unicode="&#xe944;" d="M812.014 286.316h-605.418c-15.27 0-26.947 11.677-26.947 26.947 0 2.695 0 5.389 0.898 8.084l82.639 269.474c3.593 11.677 13.474 18.863 26.049 18.863h438.344c11.677 0 22.456-7.186 26.049-18.863l85.333-269.474c4.491-14.372-3.593-29.642-17.965-34.133-3.593-0.898-6.288-0.898-8.982-0.898zM289.235 596.211c-6.288 0-10.779-3.593-12.575-9.881l-82.639-269.474c0-0.898-0.898-2.695-0.898-3.593 0-7.186 6.288-13.474 13.474-13.474h605.418c1.796 0 2.695 0 4.491 0.898 7.186 1.796 10.779 9.881 8.982 17.067l-85.333 269.474c-1.796 5.389-7.186 8.982-12.575 8.982h-438.344z" />
<glyph unicode="&#xe945;" d="M564.098 557.586h139.228c5.389 0 8.982-3.593 8.982-8.982v-49.404c0-5.389-3.593-8.982-8.982-8.982h-139.228c-5.389 0-8.982 3.593-8.982 8.982v49.404c0 5.389 3.593 8.982 8.982 8.982z" />
<glyph unicode="&#xe946;" d="M702.428 483.93h-138.33c-8.982 0-16.168 7.186-16.168 16.168v49.404c0 8.982 7.186 16.168 16.168 16.168h139.228c8.982 0 16.168-7.186 16.168-16.168v-49.404c-0.898-8.982-8.084-16.168-17.067-16.168zM564.098 551.298c-0.898 0-1.796-0.898-1.796-1.796v-49.404c0-0.898 0.898-1.796 1.796-1.796h139.228c0.898 0 1.796 0.898 1.796 1.796v49.404c0 0.898-0.898 1.796-1.796 1.796h-139.228z" />
<glyph unicode="&#xe947;" d="M296.421 401.291h170.667v-13.474h-170.667v13.474z" />
<glyph unicode="&#xe948;" d="M574.877 710.288c-0.898 0-1.796-0.898-1.796-1.796v-62.877c0-0.898 0.898-1.796 1.796-1.796h125.754c0.898 0 1.796 0.898 1.796 1.796v62.877c0 0.898-0.898 1.796-1.796 1.796h-125.754z" />
<glyph unicode="&#xe949;" d="M700.632 636.632h-125.754c-5.389 0-8.982 3.593-8.982 8.982v62.877c0 5.389 3.593 8.982 8.982 8.982h125.754c5.389 0 8.982-3.593 8.982-8.982v-62.877c0-5.389-3.593-8.982-8.982-8.982zM579.368 650.105h116.772v53.895h-116.772v-53.895z" />
<glyph unicode="&#xe94a;" d="M603.621 636.632h13.474v-26.947h-13.474v26.947z" />
<glyph unicode="&#xe94b;" d="M648.533 636.632h13.474v-26.947h-13.474v26.947z" />
<glyph unicode="&#xe94c;" d="M330.554 401.291h94.316v136.533c0 16.168-13.474 28.744-28.744 28.744h-35.93c-16.168 0-28.744-13.474-28.744-28.744v-136.533z" />
<glyph unicode="&#xe94d;" d="M431.158 394.105h-107.789v143.719c0 19.761 16.168 35.93 35.93 35.93h35.93c19.761 0 35.93-16.168 35.93-35.93v-143.719zM336.842 407.579h80.842v130.246c0 12.575-9.881 22.456-22.456 22.456h-35.93c-12.575 0-22.456-9.881-22.456-22.456v-130.246z" />
<glyph unicode="&#xe94e;" d="M583.86 398.596c0-7.441-6.032-13.474-13.474-13.474s-13.474 6.032-13.474 13.474c0 7.441 6.032 13.474 13.474 13.474s13.474-6.032 13.474-13.474z" />
<glyph unicode="&#xe94f;" d="M646.737 398.596c0-7.441-6.032-13.474-13.474-13.474s-13.474 6.032-13.474 13.474c0 7.441 6.032 13.474 13.474 13.474s13.474-6.032 13.474-13.474z" />
<glyph unicode="&#xe950;" d="M709.614 398.596c0-7.441-6.032-13.474-13.474-13.474s-13.474 6.032-13.474 13.474c0 7.441 6.032 13.474 13.474 13.474s13.474-6.032 13.474-13.474z" />
<glyph unicode="&#xe951;" d="M583.86 452.491c0-7.441-6.032-13.474-13.474-13.474s-13.474 6.032-13.474 13.474c0 7.441 6.032 13.474 13.474 13.474s13.474-6.032 13.474-13.474z" />
<glyph unicode="&#xe952;" d="M646.737 452.491c0-7.441-6.032-13.474-13.474-13.474s-13.474 6.032-13.474 13.474c0 7.441 6.032 13.474 13.474 13.474s13.474-6.032 13.474-13.474z" />
<glyph unicode="&#xe953;" d="M709.614 452.491c0-7.441-6.032-13.474-13.474-13.474s-13.474 6.032-13.474 13.474c0 7.441 6.032 13.474 13.474 13.474s13.474-6.032 13.474-13.474z" />
<glyph unicode="&#xe954;" d="M583.86 344.702c0-7.441-6.032-13.474-13.474-13.474s-13.474 6.032-13.474 13.474c0 7.441 6.032 13.474 13.474 13.474s13.474-6.032 13.474-13.474z" />
<glyph unicode="&#xe955;" d="M646.737 344.702c0-7.441-6.032-13.474-13.474-13.474s-13.474 6.032-13.474 13.474c0 7.441 6.032 13.474 13.474 13.474s13.474-6.032 13.474-13.474z" />
<glyph unicode="&#xe956;" d="M709.614 344.702c0-7.441-6.032-13.474-13.474-13.474s-13.474 6.032-13.474 13.474c0 7.441 6.032 13.474 13.474 13.474s13.474-6.032 13.474-13.474z" />
<glyph unicode="&#xe957;" d="M143.719 306.077c-10.779 0-19.761-8.982-19.761-19.761v-80.842c0-10.779 8.982-19.761 19.761-19.761h736.561c10.779 0 19.761 8.982 19.761 19.761v80.842c0 10.779-8.982 19.761-19.761 19.761h-736.561z" />
<glyph unicode="&#xe958;" d="M880.281 178.526h-736.561c-15.27 0-26.947 11.677-26.947 26.947v80.842c0 15.27 11.677 26.947 26.947 26.947h736.561c15.27 0 26.947-11.677 26.947-26.947v-80.842c0-15.27-11.677-26.947-26.947-26.947zM143.719 299.789c-7.186 0-13.474-6.288-13.474-13.474v-80.842c0-7.186 6.288-13.474 13.474-13.474h736.561c7.186 0 13.474 6.288 13.474 13.474v80.842c0 7.186-6.288 13.474-13.474 13.474h-736.561z" />
<glyph unicode="&#xe959;" d="M529.965 245.895c0-7.441-6.032-13.474-13.474-13.474s-13.474 6.032-13.474 13.474c0 7.441 6.032 13.474 13.474 13.474s13.474-6.032 13.474-13.474z" />
<glyph unicode="&#xe95a;" d="M350.316 527.046h53.895v-13.474h-53.895v13.474z" />
<glyph unicode="&#xe95b;" d="M350.316 491.116h53.895v-13.474h-53.895v13.474z" />
<glyph unicode="&#xe95c;" d="M350.316 455.186h53.895v-13.474h-53.895v13.474z" />
<glyph unicode="&#xe95d;" d="M336.842 690.526h350.316c36.828 0 67.368-30.54 67.368-67.368v-350.316c0-36.828-30.54-67.368-67.368-67.368h-350.316c-36.828 0-67.368 30.54-67.368 67.368v350.316c0 36.828 30.54 67.368 67.368 67.368z" />
<glyph unicode="&#xe95e;" d="M687.158 196.491h-350.316c-42.218 0-76.351 34.133-76.351 76.351v350.316c0 42.218 34.133 76.351 76.351 76.351h350.316c42.218 0 76.351-34.133 76.351-76.351v-350.316c0-42.218-34.133-76.351-76.351-76.351zM336.842 681.544c-32.337 0-58.386-26.049-58.386-58.386v-350.316c0-32.337 26.049-58.386 58.386-58.386h350.316c32.337 0 58.386 26.049 58.386 58.386v350.316c0 32.337-26.049 58.386-58.386 58.386h-350.316z" />
<glyph unicode="&#xe95f;" d="M409.6 584.533c0-18.851-15.282-34.133-34.133-34.133s-34.133 15.282-34.133 34.133c0 18.851 15.282 34.133 34.133 34.133s34.133-15.282 34.133-34.133z" />
<glyph unicode="&#xe960;" d="M682.667 584.533c0-18.851-15.282-34.133-34.133-34.133s-34.133 15.282-34.133 34.133c0 18.851 15.282 34.133 34.133 34.133s34.133-15.282 34.133-34.133z" />
<glyph unicode="&#xe961;" d="M682.667 311.467c0-18.851-15.282-34.133-34.133-34.133s-34.133 15.282-34.133 34.133c0 18.851 15.282 34.133 34.133 34.133s34.133-15.282 34.133-34.133z" />
<glyph unicode="&#xe962;" d="M409.6 311.467c0-18.851-15.282-34.133-34.133-34.133s-34.133 15.282-34.133 34.133c0 18.851 15.282 34.133 34.133 34.133s34.133-15.282 34.133-34.133z" />
<glyph unicode="&#xe963;" d="M546.133 448c0-18.851-15.282-34.133-34.133-34.133s-34.133 15.282-34.133 34.133c0 18.851 15.282 34.133 34.133 34.133s34.133-15.282 34.133-34.133z" />
<glyph unicode="&#xe964;" d="M431.767 157.147l29.531 91.864 21.114 70.433 354.616 393.841 106.804-96.167-354.616-393.841-68.508-27.759-88.941-38.371zM498.1 311.361l-19.377-67.162-17.505-54.344 52.216 23.089 64.769 26.291 339.59 377.153-80.103 72.125-339.59-377.153z" />
<glyph unicode="&#xe965;" d="M461.692 217.229l-14.899-43.395 41.6 19.353z" />
<glyph unicode="&#xe966;" d="M438.98 165.157l20.978 60.886 36.714-33.057-57.692-27.829zM464.027 209.083l-9.42-26.571 25.441 12.146-16.021 14.425z" />
<glyph unicode="&#xe967;" d="M573.528 231.359l0.138 21.632-31.648-2.931 1.609 29.978-32.382-1.061-0.327 30.512-19.563-2.933-2.867 18.295 41.062 5.332-0.208-32.448 32.983 1.729-1.008-29.31 29.712 3.465 0.925-41.929z" />
<glyph unicode="&#xe968;" d="M852.356 720.761l-16.359-18.151 94.046-84.85 16.359 18.151-94.046 84.85z" />
<glyph unicode="&#xe969;" d="M931.784 608.545l-103.921 94.016 24.538 27.226 103.121-93.029-23.739-28.214zM845.118 703.457l85.864-76.764 8.179 9.075-85.958 75.871-8.086-8.182z" />
<glyph unicode="&#xe96a;" d="M897.719 765.668l-40.897-45.377 89.861-81.7 40.897 45.377-89.861 81.7z" />
<glyph unicode="&#xe96b;" d="M947.249 626.79l-103.121 93.029 53.119 58.544 103.121-93.029-53.119-58.544zM869.611 721.657l76.695-69.478 28.675 32.211-76.695 69.478-28.675-32.211z" />
<glyph unicode="&#xe96c;" d="M22.456 349.193h350.316c7.186 0 13.474-6.288 13.474-13.474v0c0-7.186-6.288-13.474-13.474-13.474h-350.316c-7.186 0-13.474 6.288-13.474 13.474v0c0 7.186 6.288 13.474 13.474 13.474z" />
<glyph unicode="&#xe96d;" d="M22.456 421.053h350.316c7.186 0 13.474-6.288 13.474-13.474v0c0-7.186-6.288-13.474-13.474-13.474h-350.316c-7.186 0-13.474 6.288-13.474 13.474v0c0 7.186 6.288 13.474 13.474 13.474z" />
<glyph unicode="&#xe96e;" d="M22.456 277.333h350.316c7.186 0 13.474-6.288 13.474-13.474v0c0-7.186-6.288-13.474-13.474-13.474h-350.316c-7.186 0-13.474 6.288-13.474 13.474v0c0 7.186 6.288 13.474 13.474 13.474z" />
<glyph unicode="&#xe96f;" d="M22.456 205.474h350.316c7.186 0 13.474-6.288 13.474-13.474v0c0-7.186-6.288-13.474-13.474-13.474h-350.316c-7.186 0-13.474 6.288-13.474 13.474v0c0 7.186 6.288 13.474 13.474 13.474z" />
<glyph unicode="&#xe970;" d="M667.396 514.47c-3.593 7.186-10.779 11.677-18.863 11.677h-24.253v61.081c0 3.593-1.796 5.389-4.491 5.389h-22.456c-2.695 0-4.491-1.796-5.389-3.593l-20.66-62.877h-116.772l-20.66 62.877c-0.898 2.695-2.695 3.593-5.389 3.593h-22.456c-3.593 0-6.288-2.695-6.288-5.389v-61.081h-21.558c-8.084 0-15.27-4.491-18.863-11.677l-92.519-175.158c-16.168-30.54-25.151-64.674-25.151-99.705v-33.235c0-7.186 5.389-12.575 11.677-12.575h519.186c6.288 0 10.779 5.389 10.779 12.575v31.439c0 35.93-8.084 70.961-24.253 101.502l-91.621 175.158z" />
<glyph unicode="&#xe971;" d="M772.491 187.509h-519.186c-9.881 0-18.863 8.084-18.863 18.863v33.235c0.898 35.93 9.881 70.961 26.049 102.4l92.519 175.158c4.491 8.982 14.372 15.27 25.151 15.27h15.27v54.793c0 6.288 6.288 12.575 13.474 12.575h22.456c5.389 0 9.881-3.593 11.677-8.084l19.761-58.386h106.891l19.761 58.386c1.796 5.389 6.288 8.084 11.677 8.084h22.456c5.389 0 10.779-4.491 10.779-12.575v-54.793h17.067c9.881 0 19.761-5.389 24.253-15.27v0l90.723-174.26c16.168-31.439 25.151-68.267 25.151-105.095v-31.439c0-10.779-7.186-18.863-17.067-18.863zM378.161 518.961c-5.389 0-9.881-2.695-12.575-8.084l-92.519-175.158c-15.27-29.642-24.253-62.877-24.253-97.011v-33.235c0-2.695 2.695-5.389 5.389-5.389h518.288c2.695 0 4.491 2.695 4.491 5.389v31.439c0 35.032-8.084 69.165-23.354 98.807l-91.621 175.158c-2.695 5.389-7.186 8.084-12.575 8.084h-30.54v67.368h-18.863l-22.456-67.368h-126.653l-22.456 67.368h-21.558v-67.368h-28.744z" />
<glyph unicode="&#xe972;" d="M614.4 359.972c0 55.691-45.811 102.4-102.4 102.4s-102.4-45.811-102.4-102.4c0-56.589 45.811-103.298 102.4-103.298s102.4 46.709 102.4 103.298z" />
<glyph unicode="&#xe973;" d="M512 250.386c-60.182 0-109.586 49.404-109.586 109.586s49.404 108.688 109.586 108.688c60.182 0 109.586-48.505 109.586-108.688 0-61.081-49.404-109.586-109.586-109.586zM512 455.186c-52.996 0-96.112-43.116-96.112-95.214 0-52.996 43.116-96.112 96.112-96.112s96.112 43.116 96.112 96.112c0 52.098-43.116 95.214-96.112 95.214z" />
<glyph unicode="&#xe974;" d="M527.27 428.239c0-8.433-6.837-15.27-15.27-15.27s-15.27 6.837-15.27 15.27c0 8.433 6.837 15.27 15.27 15.27s15.27-6.837 15.27-15.27z" />
<glyph unicode="&#xe975;" d="M489.544 421.951c0-8.433-6.837-15.27-15.27-15.27s-15.27 6.837-15.27 15.27c0 8.433 6.837 15.27 15.27 15.27s15.27-6.837 15.27-15.27z" />
<glyph unicode="&#xe976;" d="M465.291 384.225c0-8.433-6.837-15.27-15.27-15.27s-15.27 6.837-15.27 15.27c0 8.433 6.837 15.27 15.27 15.27s15.27-6.837 15.27-15.27z" />
<glyph unicode="&#xe977;" d="M465.291 340.211c0-8.433-6.837-15.27-15.27-15.27s-15.27 6.837-15.27 15.27c0 8.433 6.837 15.27 15.27 15.27s15.27-6.837 15.27-15.27z" />
<glyph unicode="&#xe978;" d="M489.544 309.67c0-8.433-6.837-15.27-15.27-15.27s-15.27 6.837-15.27 15.27c0 8.433 6.837 15.27 15.27 15.27s15.27-6.837 15.27-15.27z" />
<glyph unicode="&#xe979;" d="M527.27 297.095c0-8.433-6.837-15.27-15.27-15.27s-15.27 6.837-15.27 15.27c0 8.433 6.837 15.27 15.27 15.27s15.27-6.837 15.27-15.27z" />
<glyph unicode="&#xe97a;" d="M564.996 309.67c0-8.433-6.837-15.27-15.27-15.27s-15.27 6.837-15.27 15.27c0 8.433 6.837 15.27 15.27 15.27s15.27-6.837 15.27-15.27z" />
<glyph unicode="&#xe97b;" d="M589.249 340.211c0-8.433-6.837-15.27-15.27-15.27s-15.27 6.837-15.27 15.27c0 8.433 6.837 15.27 15.27 15.27s15.27-6.837 15.27-15.27z" />
<glyph unicode="&#xe97c;" d="M589.249 384.225c0-8.433-6.837-15.27-15.27-15.27s-15.27 6.837-15.27 15.27c0 8.433 6.837 15.27 15.27 15.27s15.27-6.837 15.27-15.27z" />
<glyph unicode="&#xe97d;" d="M564.996 421.951c0-8.433-6.837-15.27-15.27-15.27s-15.27 6.837-15.27 15.27c0 8.433 6.837 15.27 15.27 15.27s15.27-6.837 15.27-15.27z" />
<glyph unicode="&#xe97e;" d="M801.235 541.418c-1.796 17.965-3.593 29.642-4.491 40.421-5.389 26.049-20.66 49.404-47.607 67.368-51.2 26.947-136.533 43.116-237.137 43.116-98.807 0-182.344-15.27-232.646-41.319-33.235-19.761-49.404-47.607-52.996-77.249-0.898-9.881-2.695-21.558-3.593-33.235-1.796-13.474 8.084-24.253 18.863-22.456l105.993 17.965c9.881 1.796 17.965 11.677 17.965 22.456v28.744c0 26.947 67.368 45.811 147.312 45.811s147.312-19.761 147.312-45.811v-28.744c0-11.677 7.186-21.558 16.168-22.456l105.993-17.965c10.779-0.898 20.66 9.881 18.863 23.354z" />
<glyph unicode="&#xe97f;" d="M785.067 511.775c-0.898 0-2.695 0-3.593 0l-105.993 17.965c-12.575 1.796-21.558 14.372-21.558 29.642v28.744c0 17.965-57.488 38.625-141.025 38.625s-141.025-20.66-141.025-38.625v-28.744c0-14.372-10.779-26.947-23.354-29.642l-105.993-17.067c-7.186-0.898-13.474 0.898-18.863 6.288-6.288 6.288-8.982 14.372-8.084 23.354l3.593 33.235c2.695 24.253 15.27 57.488 55.691 81.74 52.996 26.947 139.228 42.218 237.137 42.218 99.705 0 187.733-16.168 239.832-44.912 27.846-17.965 45.811-42.218 51.2-71.86l4.491-41.319c0.898-8.982-1.796-17.965-8.084-23.354-3.593-3.593-8.982-6.288-14.372-6.288zM512.898 640.225c76.351 0 154.498-17.965 154.498-52.098v-28.744c0-8.084 4.491-15.27 10.779-16.168l105.993-17.965c3.593-0.898 5.389 0.898 7.186 2.695 2.695 2.695 4.491 7.186 3.593 12.575v2.695l-4.491 37.726c-5.389 25.151-20.66 46.709-44.912 61.979-50.302 26.947-135.635 43.116-232.646 43.116s-180.547-15.27-230.849-40.421c-27.846-17.067-44.912-42.218-48.505-71.86l-3.593-33.235c-0.898-4.491 0.898-8.982 3.593-12.575 0.898-0.898 3.593-2.695 7.186-2.695l105.993 17.965c7.186 0.898 12.575 8.084 12.575 16.168v28.744c0 34.133 77.249 52.098 153.6 52.098z" />
<glyph unicode="&#xe980;" d="M301.811 194.695l142.821 76.351h2.695c17.965-3.593 46.709-5.389 69.165-5.389 147.312 0 266.779 96.112 266.779 213.782s-118.568 212.884-266.779 212.884-266.779-95.214-266.779-212.884c0-62.877 35.93-118.568 99.705-159.888l4.491-2.695-1.796-5.389-50.302-116.772z" />
<glyph unicode="&#xe981;" d="M288.337 179.425l57.488 133.839c-66.47 43.116-103.298 102.4-103.298 166.175 0 121.263 123.060 220.070 273.965 220.070s273.965-98.807 273.965-220.070c0-121.263-123.060-220.070-273.965-220.070-24.253 0-52.098 1.796-70.063 5.389v0l-158.091-85.333zM516.491 686.035c-143.719 0-260.491-92.519-260.491-206.596 0-60.182 33.235-113.179 97.011-154.498l9.881-6.288-47.607-108.688 128.449 68.267 4.491-0.898c17.067-2.695 44.912-5.389 68.267-5.389 143.719 0 260.491 92.519 260.491 206.596 0 114.975-116.772 207.495-260.491 207.495z" />
<glyph unicode="&#xe982;" d="M395.228 479.439c0-12.402-10.054-22.456-22.456-22.456s-22.456 10.054-22.456 22.456c0 12.402 10.054 22.456 22.456 22.456s22.456-10.054 22.456-22.456z" />
<glyph unicode="&#xe983;" d="M467.088 479.439c0-12.402-10.054-22.456-22.456-22.456s-22.456 10.054-22.456 22.456c0 12.402 10.054 22.456 22.456 22.456s22.456-10.054 22.456-22.456z" />
<glyph unicode="&#xe984;" d="M538.947 479.439c0-12.402-10.054-22.456-22.456-22.456s-22.456 10.054-22.456 22.456c0 12.402 10.054 22.456 22.456 22.456s22.456-10.054 22.456-22.456z" />
<glyph unicode="&#xe985;" d="M610.807 479.439c0-12.402-10.054-22.456-22.456-22.456s-22.456 10.054-22.456 22.456c0 12.402 10.054 22.456 22.456 22.456s22.456-10.054 22.456-22.456z" />
<glyph unicode="&#xe986;" d="M682.667 479.439c0-12.402-10.054-22.456-22.456-22.456s-22.456 10.054-22.456 22.456c0 12.402 10.054 22.456 22.456 22.456s22.456-10.054 22.456-22.456z" />
</font>
</defs>
</svg>
