<?xml version="1.0" encoding="UTF-8"?>
<svg width="138px" height="45px" viewBox="0 0 138 45" version="1.1" xmlns="http://www.w3.org/2000/svg" xmlns:xlink="http://www.w3.org/1999/xlink">
    <!-- Generator: Sketch 63.1 (92452) - https://sketch.com -->
    <title>Group 27</title>
    <desc>Created with Sketch.</desc>
    <g id="PDP" stroke="none" stroke-width="1" fill="none" fill-rule="evenodd">
        <g id="PDP-Mobile-Copy-6" transform="translate(-26.000000, -4276.000000)">
            <g id="Group-27" transform="translate(26.000000, 4277.000000)">
                <polygon id="Fill-1" fill="#000000" points="10.05664 19.313536 10.05664 30.681216 6.7088 30.681216 6.7088 19.313536 5.28032 19.313536 5.28032 16.189056 6.7088 16.189056 6.7088 10.877696 10.05664 10.877696 10.05664 16.189056 12.66016 16.189056 12.66016 19.313536"></polygon>
                <g id="Group-26" transform="translate(0.000000, 0.255616)">
                    <path d="M15.241984,5.294784 L18.589824,5.294784 L18.589824,17.138624 C19.780224,16.067264 21.094784,15.531584 22.532864,15.531584 C24.169344,15.531584 25.478784,16.062784 26.460544,17.123264 C27.293824,18.046144 27.710464,19.519424 27.710464,21.543104 L27.710464,30.425664 L24.362624,30.425664 L24.362624,21.855424 C24.362624,20.694464 24.157184,19.854144 23.745024,19.333824 C23.333504,18.812224 22.671744,18.552384 21.759104,18.552384 C20.588544,18.552384 19.764864,18.914624 19.289344,19.637824 C18.822784,20.373184 18.589824,21.632064 18.589824,23.417664 L18.589824,30.425664 L15.241984,30.425664 L15.241984,5.294784 Z" id="Fill-2" fill="#000000"></path>
                    <path d="M41.406656,21.2304 C40.940096,19.4448 39.814976,18.552 38.029376,18.552 C37.622336,18.552 37.240896,18.61408 36.883776,18.73824 C36.526656,18.8624 36.201536,19.04032 35.909056,19.27392 C35.616576,19.50752 35.366336,19.7872 35.157696,20.11424 C34.949056,20.44192 34.790976,20.81376 34.681536,21.2304 L41.406656,21.2304 Z M44.844096,23.96768 L34.458816,23.96768 C34.547776,25.15872 34.934336,26.10528 35.619136,26.80992 C36.303296,27.50432 37.180736,27.8512 38.252096,27.8512 C39.086016,27.8512 39.774656,27.6528 40.320576,27.256 C40.856256,26.85984 41.466176,26.12512 42.150976,25.0544 L44.977856,26.63136 C44.540736,27.37504 44.079936,28.01312 43.593536,28.54304 C43.107776,29.07424 42.587456,29.51072 42.031936,29.85248 C41.475776,30.19488 40.876096,30.44448 40.231616,30.60384 C39.586496,30.76256 38.886976,30.84192 38.133056,30.84192 C35.970496,30.84192 34.234816,30.14816 32.926016,28.75936 C31.616576,27.36032 30.961856,25.5056 30.961856,23.19392 C30.961856,20.90272 31.596736,19.04864 32.866496,17.62976 C34.145856,16.23072 35.841856,15.53184 37.954496,15.53184 C40.087616,15.53184 41.773376,16.21152 43.013696,17.57024 C44.243776,18.91936 44.858816,20.78944 44.858816,23.17984 L44.844096,23.96768 Z" id="Fill-4" fill="#000000"></path>
                    <path d="M65.719168,18.40352 L62.951808,19.87616 C62.524928,18.98336 61.984768,18.53728 61.330048,18.53728 C61.022208,18.53728 60.759168,18.63904 60.541568,18.84256 C60.322688,19.04544 60.213888,19.30592 60.213888,19.62336 C60.213888,20.16928 60.858368,20.71968 62.147968,21.2752 C63.923328,22.03936 65.118848,22.74272 65.733888,23.3872 C66.348928,24.03296 66.656128,24.90016 66.656128,25.99136 C66.656128,27.40064 66.140928,28.57056 65.108608,29.50304 C64.117248,30.3952 62.907008,30.84192 61.478528,30.84192 C59.048448,30.84192 57.327488,29.65664 56.315648,27.28608 L59.172608,25.96192 C59.529728,26.6064 59.831808,27.048 60.079488,27.28608 C60.476928,27.66304 60.962688,27.8512 61.538048,27.8512 C62.668928,27.8512 63.234048,27.336 63.234048,26.30368 C63.234048,25.71872 62.797568,25.16384 61.924608,24.63712 C61.250048,24.31008 60.571008,23.98304 59.886848,23.65536 C58.914688,23.17984 58.229888,22.70368 57.833728,22.22752 C57.327488,21.62208 57.074688,20.84384 57.074688,19.89088 C57.074688,18.62176 57.506048,17.57792 58.369408,16.75936 C59.232128,15.9408 60.303488,15.53184 61.582848,15.53184 C63.437568,15.53184 64.816128,16.48928 65.719168,18.40352" id="Fill-6" fill="#000000"></path>
                    <polygon id="Fill-8" fill="#000000" points="72.809152 19.05792 72.809152 30.4256 69.461312 30.4256 69.461312 19.05792 68.032832 19.05792 68.032832 15.93344 69.461312 15.93344 69.461312 10.62208 72.809152 10.62208 72.809152 15.93344 75.412672 15.93344 75.412672 19.05792"></polygon>
                    <path d="M77.384768,15.933504 L80.731968,15.933504 L80.731968,17.227584 C81.347008,16.583744 81.892288,16.141504 82.369088,15.903424 C82.854848,15.655744 83.430208,15.531584 84.094528,15.531584 C84.977728,15.531584 85.899968,15.819584 86.862528,16.394944 L85.329728,19.459904 C84.694848,19.003584 84.074688,18.775104 83.469888,18.775104 C81.644608,18.775104 80.731968,20.154304 80.731968,22.911424 L80.731968,30.425664 L77.384768,30.425664 L77.384768,15.933504 Z" id="Fill-10" fill="#000000"></path>
                    <path d="M91.006336,23.134784 C91.006336,24.523584 91.378176,25.654464 92.121856,26.527424 C92.886016,27.409984 93.847936,27.850944 95.008256,27.850944 C96.248576,27.850944 97.250176,27.425344 98.014336,26.571584 C98.777856,25.689024 99.159936,24.568384 99.159936,23.209024 C99.159936,21.850304 98.777856,20.729664 98.014336,19.846464 C97.250176,18.983744 96.258176,18.552384 95.038336,18.552384 C93.887616,18.552384 92.925696,18.988224 92.151936,19.861824 C91.387776,20.744384 91.006336,21.835584 91.006336,23.134784 L91.006336,23.134784 Z M98.951936,15.933504 L102.313856,15.933504 L102.313856,30.425664 L98.951936,30.425664 L98.951936,28.908224 C97.572736,30.197184 96.089216,30.841664 94.502656,30.841664 C92.499456,30.841664 90.842496,30.117824 89.533056,28.669504 C88.233216,27.191744 87.584256,25.347264 87.584256,23.134784 C87.584256,20.961984 88.233216,19.152064 89.533056,17.704384 C90.832896,16.256064 92.459136,15.531584 94.413056,15.531584 C96.099456,15.531584 97.612416,16.225984 98.951936,17.614784 L98.951936,15.933504 Z" id="Fill-12" fill="#000000"></path>
                    <path d="M106.234752,15.933504 L109.597312,15.933504 L109.597312,17.273024 C110.767872,16.112064 112.087552,15.531584 113.555072,15.531584 C115.241472,15.531584 116.555392,16.062784 117.498112,17.123264 C118.311552,18.026944 118.717952,19.499584 118.717952,21.543104 L118.717952,30.425664 L115.355392,30.425664 L115.355392,22.320704 C115.355392,20.890944 115.156992,19.902784 114.760192,19.356864 C114.373632,18.800064 113.669632,18.522304 112.648192,18.522304 C111.536512,18.522304 110.748032,18.889664 110.282112,19.625024 C109.825792,20.349504 109.597312,21.616064 109.597312,23.423424 L109.597312,30.425664 L106.234752,30.425664 L106.234752,15.933504 Z" id="Fill-14" fill="#000000"></path>
                    <path d="M125.37664,23.134784 C125.37664,24.523584 125.74848,25.654464 126.4928,26.527424 C127.25632,27.409984 128.21824,27.850944 129.37856,27.850944 C130.61888,27.850944 131.62048,27.425344 132.38464,26.571584 C133.14816,25.689024 133.53024,24.568384 133.53024,23.209024 C133.53024,21.850304 133.14816,20.729664 132.38464,19.846464 C131.62048,18.983744 130.62912,18.552384 129.40864,18.552384 C128.25792,18.552384 127.296,18.988224 126.52224,19.861824 C125.75808,20.744384 125.37664,21.835584 125.37664,23.134784 L125.37664,23.134784 Z M133.32224,5.294784 L136.68416,5.294784 L136.68416,30.425664 L133.32224,30.425664 L133.32224,28.908224 C132.00256,30.197184 130.51008,30.841664 128.84352,30.841664 C126.85952,30.841664 125.2128,30.117824 123.90336,28.669504 C122.60416,27.191744 121.95456,25.347264 121.95456,23.134784 C121.95456,20.972864 122.60416,19.167424 123.90336,17.719104 C125.19296,16.261184 126.81472,15.531584 128.76928,15.531584 C130.46528,15.531584 131.98272,16.225984 133.32224,17.614784 L133.32224,5.294784 Z" id="Fill-16" fill="#000000"></path>
                    <line x1="5.280384" y1="0.218496" x2="44.977664" y2="6.503296" id="Stroke-18" stroke="#FF6B26" stroke-width="0.96"></line>
                    <line x1="0.075072" y1="5.424192" x2="39.771712" y2="11.708992" id="Stroke-20" stroke="#FF6B26" stroke-width="0.96"></line>
                    <path d="M123.106624,41.88352 L123.106624,41.88352 C122.224704,40.34112 120.504384,40.34112 119.622464,41.88352 C118.739904,43.42528 117.019584,43.42528 116.137664,41.88352 C115.255104,40.34112 113.535424,40.34112 112.653504,41.88352 C111.770944,43.42528 110.050624,43.42528 109.168704,41.88352 C108.286144,40.34112 106.566464,40.34112 105.683904,41.88352 C104.801984,43.42528 103.081664,43.42528 102.199744,41.88352 C101.317184,40.34112 99.597504,40.34112 98.714944,41.88352 C97.833024,43.42528 96.112704,43.42528 95.230144,41.88352 C94.348224,40.34112 92.627904,40.34112 91.745984,41.88352 C90.864064,43.42528 89.143744,43.42528 88.261184,41.88352 C87.379264,40.34112 85.658944,40.34112 84.777024,41.88352 C83.894464,43.42528 82.174144,43.42528 81.292224,41.88352 C80.410304,40.34112 78.689984,40.34112 77.808064,41.88352 C76.925504,43.42528 75.205184,43.42528 74.323264,41.88352 C73.440704,40.34112 71.721024,40.34112 70.839104,41.88352 C69.956544,43.42528 68.236224,43.42528 67.354304,41.88352 C66.471744,40.34112 64.752064,40.34112 63.869504,41.88352 C62.987584,43.42528 61.267264,43.42528 60.385344,41.88352 C59.502784,40.34112 57.783104,40.34112 56.900544,41.88352 C56.018624,43.42528 54.298304,43.42528 53.415744,41.88352 C52.533824,40.34112 50.813504,40.34112 49.931584,41.88352 C49.049664,43.42528 47.329344,43.42528 46.446784,41.88352 C45.564864,40.34112 43.844544,40.34112 42.962624,41.88352" id="Stroke-22" stroke="#FF5EDA" stroke-width="0.96"></path>
                    <path d="M136.68448,35.659136 L136.68448,35.659136 C135.80256,34.117376 134.08224,34.117376 133.20032,35.659136 C132.31776,37.200896 130.59744,37.200896 129.71552,35.659136 C128.83296,34.117376 127.11328,34.117376 126.23136,35.659136 C125.3488,37.200896 123.62848,37.200896 122.74656,35.659136 C121.864,34.117376 120.14432,34.117376 119.26176,35.659136 C118.37984,37.200896 116.65952,37.200896 115.7776,35.659136 C114.89504,34.117376 113.17536,34.117376 112.2928,35.659136 C111.41088,37.200896 109.69056,37.200896 108.808,35.659136 C107.92608,34.117376 106.20576,34.117376 105.32384,35.659136 C104.44192,37.200896 102.7216,37.200896 101.83904,35.659136 C100.95712,34.117376 99.2368,34.117376 98.35488,35.659136 C97.47232,37.200896 95.752,37.200896 94.87008,35.659136 C93.98816,34.117376 92.26784,34.117376 91.38592,35.659136 C90.50336,37.200896 88.78304,37.200896 87.90112,35.659136 C87.01856,34.117376 85.29888,34.117376 84.41696,35.659136 C83.5344,37.200896 81.81408,37.200896 80.93216,35.659136 C80.0496,34.117376 78.32992,34.117376 77.44736,35.659136 C76.56544,37.200896 74.84512,37.200896 73.9632,35.659136 C73.08064,34.117376 71.36096,34.117376 70.4784,35.659136 C69.59648,37.200896 67.87616,37.200896 66.9936,35.659136 C66.11168,34.117376 64.39136,34.117376 63.50944,35.659136 C62.62752,37.200896 60.9072,37.200896 60.02464,35.659136 C59.14272,34.117376 57.4224,34.117376 56.54048,35.659136" id="Stroke-24" stroke="#FF5EDA" stroke-width="0.96"></path>
                </g>
            </g>
        </g>
    </g>
</svg>