<svg width="414" height="768" viewBox="0 0 414 768" fill="none" xmlns="http://www.w3.org/2000/svg">
<path fill-rule="evenodd" clip-rule="evenodd" d="M238 767.9C238 767.9 -55.3527 766 -187.393 643.349C-319.434 520.688 -343 228.2 -343 228.2C-343 228.2 -49.6562 230.111 82.3891 352.766C214.425 475.423 238 767.9 238 767.9" fill="#FF5EDB"/>
<path fill-rule="evenodd" clip-rule="evenodd" d="M579.551 285.206C576.135 285.127 572.817 284.695 569.618 283.949C572.7 285.049 575.742 286.482 578.668 288.248C601.301 302.009 608.504 331.531 594.744 354.164C580.984 376.816 551.48 384 528.827 370.24C525.803 368.395 523.035 366.275 520.582 363.939C522.839 366.491 524.822 369.337 526.529 372.439C539.269 395.68 530.75 424.829 507.508 437.569C484.286 450.288 455.115 441.769 442.395 418.548C440.707 415.485 439.411 412.306 438.449 409.086C439.098 412.384 439.392 415.799 439.313 419.294C438.705 445.773 416.758 466.777 390.277 466.188C363.777 465.58 342.792 443.634 343.38 417.134C343.459 413.719 343.891 410.402 344.637 407.202C343.538 410.303 342.105 413.326 340.338 416.251C326.577 438.903 297.074 446.107 274.42 432.347C251.786 418.587 244.583 389.064 258.343 366.432C260.188 363.409 262.309 360.641 264.645 358.187C262.092 360.445 259.246 362.427 256.144 364.136C232.902 376.875 203.752 368.356 191.012 345.115C178.292 321.874 186.812 292.724 210.053 279.985C213.115 278.296 216.296 276.981 219.535 276.039C221.006 275.764 222.46 275.411 223.892 274.959C222.42 275.254 220.968 275.607 219.535 276.039C216.236 276.687 212.801 276.981 209.287 276.903C182.807 276.314 161.822 254.349 162.411 227.868C162.999 201.388 184.965 180.385 211.447 180.974C214.98 181.053 218.415 181.524 221.714 182.329C223.146 182.819 224.599 183.251 226.051 183.605C224.638 183.114 223.186 182.682 221.714 182.329C218.494 181.229 215.354 179.777 212.331 177.932C189.696 164.172 182.492 134.669 196.252 112.016C210.013 89.3843 239.517 82.1799 262.151 95.9402C265.174 97.7856 267.943 99.9057 270.397 102.242C271.358 103.36 272.36 104.42 273.419 105.421C272.476 104.322 271.456 103.262 270.397 102.242C268.138 99.6898 266.156 96.8432 264.448 93.742C251.728 70.5011 260.247 41.351 283.469 28.6314C306.712 15.8925 335.863 24.4114 348.602 47.6516C350.291 50.7342 351.605 53.9135 352.548 57.133C351.9 53.8353 351.605 50.4007 351.684 46.8863C352.274 20.4065 374.24 -0.577495 400.72 0.0121275C427.221 0.600945 448.205 22.566 447.617 49.0459C447.538 52.5788 447.068 56.0142 446.262 59.3119C445.772 60.7256 445.359 62.1384 445.026 63.552C445.517 62.1779 445.929 60.7449 446.262 59.3119C447.362 56.0932 448.814 52.9525 450.659 49.9295C464.42 27.2967 493.924 20.0923 516.577 33.8526C539.211 47.6129 546.415 77.1158 532.653 99.7679C530.848 102.732 528.767 105.44 526.471 107.874C525.293 108.895 524.174 109.975 523.114 111.075C524.272 110.073 525.392 109.013 526.471 107.874C529.003 105.676 531.791 103.713 534.853 102.045C558.075 89.3255 587.245 97.8444 599.966 121.085C612.706 144.307 604.186 173.476 580.944 186.196C577.882 187.884 574.702 189.18 571.483 190.141C574.78 189.494 578.196 189.199 581.69 189.278C608.19 189.886 629.175 211.832 628.586 238.312C627.997 264.811 606.032 285.795 579.551 285.206" fill="#FF5EDB"/>
</svg>
