<svg width="414" height="753" viewBox="0 0 414 753" fill="none" xmlns="http://www.w3.org/2000/svg">
<path fill-rule="evenodd" clip-rule="evenodd" d="M311 767.9C311 767.9 17.6473 766 -114.393 643.349C-246.434 520.688 -270 228.2 -270 228.2C-270 228.2 23.3438 230.111 155.389 352.766C287.425 475.423 311 767.9 311 767.9" fill="#FF5EDB"/>
<path fill-rule="evenodd" clip-rule="evenodd" d="M652.551 285.206C649.135 285.127 645.817 284.695 642.618 283.949C645.7 285.049 648.742 286.482 651.668 288.248C674.301 302.009 681.504 331.531 667.744 354.164C653.984 376.816 624.48 384 601.827 370.24C598.803 368.395 596.035 366.275 593.582 363.939C595.839 366.491 597.822 369.337 599.529 372.439C612.269 395.68 603.75 424.829 580.508 437.569C557.286 450.288 528.115 441.769 515.395 418.548C513.707 415.485 512.411 412.306 511.449 409.086C512.098 412.384 512.392 415.799 512.313 419.294C511.705 445.773 489.758 466.777 463.277 466.188C436.777 465.58 415.792 443.634 416.38 417.134C416.459 413.719 416.891 410.402 417.637 407.202C416.538 410.303 415.105 413.326 413.338 416.251C399.577 438.903 370.074 446.107 347.42 432.347C324.786 418.587 317.583 389.064 331.343 366.432C333.188 363.409 335.309 360.641 337.645 358.187C335.092 360.445 332.246 362.427 329.144 364.136C305.902 376.875 276.752 368.356 264.012 345.115C251.292 321.874 259.812 292.724 283.053 279.985C286.115 278.296 289.296 276.981 292.535 276.039C294.006 275.764 295.46 275.411 296.892 274.959C295.42 275.254 293.968 275.607 292.535 276.039C289.236 276.687 285.801 276.981 282.287 276.903C255.807 276.314 234.822 254.349 235.411 227.868C235.999 201.388 257.965 180.385 284.447 180.974C287.98 181.053 291.415 181.524 294.714 182.329C296.146 182.819 297.599 183.251 299.051 183.605C297.638 183.114 296.186 182.682 294.714 182.329C291.494 181.229 288.354 179.777 285.331 177.932C262.696 164.172 255.492 134.669 269.252 112.016C283.013 89.3843 312.517 82.1799 335.151 95.9402C338.174 97.7856 340.943 99.9057 343.397 102.242C344.358 103.36 345.36 104.42 346.419 105.421C345.476 104.322 344.456 103.262 343.397 102.242C341.138 99.6898 339.156 96.8432 337.448 93.742C324.728 70.5011 333.247 41.351 356.469 28.6314C379.712 15.8925 408.863 24.4114 421.602 47.6516C423.291 50.7342 424.605 53.9135 425.548 57.133C424.9 53.8353 424.605 50.4007 424.684 46.8863C425.274 20.4065 447.24 -0.577495 473.72 0.0121275C500.221 0.600945 521.205 22.566 520.617 49.0459C520.538 52.5788 520.068 56.0142 519.262 59.3119C518.772 60.7256 518.359 62.1384 518.026 63.552C518.517 62.1779 518.929 60.7449 519.262 59.3119C520.362 56.0932 521.814 52.9525 523.659 49.9295C537.42 27.2967 566.924 20.0923 589.577 33.8526C612.211 47.6129 619.415 77.1158 605.653 99.7679C603.848 102.732 601.767 105.44 599.471 107.874C598.293 108.895 597.174 109.975 596.114 111.075C597.272 110.073 598.392 109.013 599.471 107.874C602.003 105.676 604.791 103.713 607.853 102.045C631.075 89.3255 660.245 97.8444 672.966 121.085C685.706 144.307 677.186 173.476 653.944 186.196C650.882 187.884 647.702 189.18 644.483 190.141C647.78 189.494 651.196 189.199 654.69 189.278C681.19 189.886 702.175 211.832 701.586 238.312C700.997 264.811 679.032 285.795 652.551 285.206" fill="#FF5EDB"/>
</svg>
