<svg width="1300" height="1085" viewBox="0 0 1300 1085" fill="none" xmlns="http://www.w3.org/2000/svg">
<path fill-rule="evenodd" clip-rule="evenodd" d="M800 1085C800 1085 396.072 1082.38 214.261 913.531C32.4484 744.665 0 342 0 342C0 342 403.916 344.63 585.734 513.489C767.539 682.349 800 1085 800 1085" fill="#FF5EDB"/>
<path fill-rule="evenodd" clip-rule="evenodd" d="M977.177 472.403C977.266 468.539 977.755 464.786 978.598 461.167C977.355 464.653 975.734 468.095 973.736 471.404C958.171 497.005 924.777 505.154 899.176 489.589C873.553 474.024 865.427 440.651 880.992 415.028C883.078 411.607 885.476 408.476 888.119 405.701C885.232 408.254 882.013 410.497 878.504 412.428C852.216 426.839 819.244 417.202 804.833 390.913C790.446 364.645 800.082 331.648 826.349 317.26C829.813 315.351 833.409 313.885 837.051 312.797C833.321 313.531 829.457 313.863 825.505 313.774C795.552 313.086 771.795 288.261 772.461 258.308C773.149 228.332 797.972 204.595 827.948 205.26C831.811 205.35 835.563 205.839 839.182 206.683C835.674 205.439 832.255 203.818 828.946 201.82C803.323 186.254 795.175 152.882 810.74 127.257C826.304 101.655 859.699 93.5067 885.299 109.072C888.718 111.159 891.849 113.558 894.625 116.2C892.071 113.312 889.829 110.094 887.896 106.585C873.487 80.2948 883.123 47.3215 909.412 32.9105C935.701 18.5222 968.673 28.1597 983.083 54.4487C984.993 57.9129 986.481 61.5102 987.547 65.174C987.857 66.8387 988.256 68.4825 988.767 70.1025C988.434 68.4378 988.035 66.795 987.547 65.174C986.813 61.4428 986.481 57.5576 986.569 53.5821C987.235 23.6293 1012.08 -0.107472 1042.03 0.558592C1071.99 1.22466 1095.74 26.0713 1095.08 56.0259C1094.99 60.0223 1094.46 63.9075 1093.55 67.6387C1092.99 69.2588 1092.5 70.9025 1092.1 72.5453C1092.66 70.9472 1093.15 69.3043 1093.55 67.6387C1094.79 63.9968 1096.43 60.445 1098.52 57.0254C1114.08 31.4226 1147.46 23.2731 1173.08 38.8385C1198.68 54.404 1206.83 87.7773 1191.26 113.379C1189.18 116.799 1186.78 119.931 1184.14 122.706C1182.87 123.793 1181.67 124.927 1180.54 126.125C1181.78 125.059 1182.98 123.904 1184.14 122.706C1187.02 120.151 1190.24 117.91 1193.75 115.977C1220.04 101.589 1253.01 111.225 1267.4 137.493C1281.81 163.784 1272.17 196.757 1245.88 211.168C1242.4 213.077 1238.8 214.564 1235.16 215.63C1238.89 214.898 1242.77 214.564 1246.75 214.654C1276.7 215.321 1300.44 240.167 1299.77 270.12C1299.11 300.097 1274.26 323.832 1244.31 323.167C1240.31 323.078 1236.43 322.546 1232.69 321.635C1231.1 321.08 1229.5 320.613 1227.9 320.236C1229.45 320.792 1231.07 321.258 1232.69 321.635C1236.34 322.878 1239.89 324.521 1243.31 326.608C1268.91 342.174 1277.06 375.547 1261.49 401.171C1245.93 426.773 1212.56 434.922 1186.93 419.356C1183.58 417.314 1180.52 414.959 1177.76 412.362C1176.61 411.029 1175.39 409.765 1174.14 408.565C1175.28 409.875 1176.48 411.141 1177.76 412.362C1180.25 415.226 1182.47 418.38 1184.36 421.843C1198.75 448.111 1189.11 481.106 1162.82 495.495C1136.55 509.906 1103.56 500.269 1089.17 473.979C1087.26 470.515 1085.8 466.918 1084.71 463.277C1085.44 467.007 1085.77 470.871 1085.69 474.823C1085 504.798 1060.17 528.535 1030.22 527.869C1000.25 527.203 976.511 502.356 977.177 472.403Z" fill="#FF5EDB"/>
</svg>
