<svg width="528" height="528" viewBox="0 0 528 528" fill="none" xmlns="http://www.w3.org/2000/svg">
<path fill-rule="evenodd" clip-rule="evenodd" d="M205.177 472.403C205.266 468.539 205.755 464.786 206.598 461.167C205.355 464.653 203.734 468.095 201.736 471.404C186.171 497.005 152.777 505.154 127.176 489.589C101.553 474.024 93.427 440.651 108.992 415.028C111.078 411.607 113.476 408.476 116.119 405.701C113.232 408.254 110.013 410.497 106.504 412.428C80.2156 426.839 47.2436 417.202 32.8332 390.913C18.4456 364.645 28.0817 331.648 54.3486 317.26C57.8127 315.351 61.409 313.885 65.0507 312.797C61.3206 313.531 57.4574 313.863 53.5049 313.774C23.5525 313.086 -0.205213 288.261 0.460804 258.308C1.14873 228.332 25.9724 204.595 55.9477 205.26C59.8108 205.35 63.5629 205.839 67.1819 206.683C63.674 205.439 60.2546 203.818 56.9462 201.82C31.3235 186.254 23.1752 152.882 38.74 127.257C54.304 101.655 87.6987 93.5067 113.299 109.072C116.718 111.159 119.849 113.558 122.625 116.2C120.071 113.312 117.829 110.094 115.896 106.585C101.487 80.2948 111.123 47.3215 137.412 32.9105C163.701 18.5222 196.673 28.1597 211.083 54.4487C212.993 57.9129 214.481 61.5102 215.547 65.174C215.857 66.8387 216.256 68.4825 216.767 70.1025C216.434 68.4378 216.035 66.795 215.547 65.174C214.813 61.4428 214.481 57.5576 214.569 53.5821C215.235 23.6293 240.081 -0.107472 270.034 0.558592C299.986 1.22466 323.744 26.0713 323.078 56.0259C322.989 60.0223 322.456 63.9075 321.546 67.6387C320.991 69.2588 320.502 70.9025 320.102 72.5453C320.657 70.9472 321.146 69.3043 321.546 67.6387C322.789 63.9968 324.432 60.445 326.519 57.0254C342.083 31.4226 375.455 23.2731 401.079 38.8385C426.679 54.404 434.828 87.7773 419.263 113.379C417.176 116.799 414.778 119.931 412.135 122.706C410.871 123.793 409.671 124.927 408.539 126.125C409.782 125.059 410.981 123.904 412.135 122.706C415.022 120.151 418.242 117.91 421.75 115.977C448.039 101.589 481.011 111.225 495.399 137.493C509.809 163.784 500.172 196.757 473.885 211.168C470.398 213.077 466.801 214.564 463.16 215.63C466.89 214.898 470.775 214.564 474.75 214.654C504.703 215.321 528.438 240.167 527.771 270.12C527.105 300.097 502.26 323.832 472.307 323.167C468.311 323.078 464.425 322.546 460.695 321.635C459.096 321.08 457.498 320.613 455.899 320.236C457.453 320.792 459.074 321.258 460.695 321.635C464.336 322.878 467.888 324.521 471.308 326.608C496.909 342.174 505.058 375.547 489.493 401.171C473.928 426.773 440.556 434.922 414.934 419.356C411.581 417.314 408.517 414.959 405.764 412.362C404.61 411.029 403.388 409.765 402.144 408.565C403.277 409.875 404.476 411.141 405.764 412.362C408.25 415.226 410.471 418.38 412.358 421.843C426.745 448.111 417.109 481.106 390.82 495.495C364.554 509.906 331.559 500.269 317.171 473.979C315.262 470.515 313.796 466.919 312.708 463.277C313.441 467.007 313.774 470.871 313.685 474.823C312.997 504.798 288.174 528.535 258.221 527.869C228.247 527.203 204.511 502.356 205.177 472.403Z" fill="#FF5EDB"/>
</svg>
