<?xml version="1.0" encoding="UTF-8"?>
<svg width="20px" height="20px" viewBox="0 0 20 20" version="1.1" xmlns="http://www.w3.org/2000/svg" xmlns:xlink="http://www.w3.org/1999/xlink">
    <title>Fill 1</title>
    <g id="PDP" stroke="none" stroke-width="1" fill="none" fill-rule="evenodd">
        <g transform="translate(-782.000000, -2071.000000)" fill="#FF5EDB" id="Fill-1">
            <path d="M789.347512,2091 C789.598178,2089.83634 789.086304,2088.59529 787.998679,2087.97104 C786.911117,2087.34673 785.58126,2087.5306 784.702875,2088.33402 C785.501881,2087.4516 785.678996,2086.12087 785.049231,2085.0364 C784.419527,2083.952 783.175934,2083.44626 782.013519,2083.70288 C783.146663,2083.33817 783.965513,2082.27429 783.962288,2081.02028 C783.959188,2079.76626 783.135004,2078.70648 782,2078.34753 C783.163717,2078.59826 784.404706,2078.08633 785.029014,2076.9987 C785.653322,2075.91107 785.469447,2074.58127 784.666038,2073.70288 C785.548454,2074.50189 786.879179,2074.67901 787.96364,2074.0493 C789.04804,2073.41953 789.553713,2072.17594 789.297218,2071.01358 C789.661868,2072.14667 790.72574,2072.96546 791.979814,2072.96229 C793.233826,2072.95913 794.293543,2072.13495 794.65255,2071 C794.40176,2072.16366 794.913758,2073.40478 796.001321,2074.02902 C797.088945,2074.65333 798.418802,2074.46946 799.297187,2073.66605 C798.498119,2074.54847 798.321004,2075.87919 798.950707,2076.96366 C799.580535,2078.04806 800.824128,2078.5538 801.986481,2078.29718 C800.853337,2078.66189 800.034549,2079.72577 800.037712,2080.97978 C800.040936,2082.23386 800.864996,2083.29358 802,2083.65259 C800.836345,2083.4018 799.595232,2083.91374 798.970986,2085.00136 C798.34674,2086.08899 798.530553,2087.41879 799.333962,2088.29718 C798.451608,2087.49817 797.120883,2087.32105 796.03636,2087.95076 C794.95196,2088.58053 794.446287,2089.82419 794.702906,2090.9866 C794.338194,2089.8534 793.274322,2089.0346 792.020248,2089.03777 C790.766236,2089.04093 789.706457,2089.86505 789.347512,2091"></path>
        </g>
    </g>
</svg>